<svg width="14" height="17" viewBox="0 0 14 17" fill="none" xmlns="http://www.w3.org/2000/svg">
<path d="M7.11793 0.596009C5.93301 2.29621 4.77898 4.07418 3.65584 5.92992C3.91416 5.8012 4.20337 5.71002 4.52347 5.65639C4.84918 5.59739 5.07661 5.56789 5.20578 5.56789C5.34055 5.56789 5.45568 5.57325 5.55114 5.58398C5.64661 5.58934 5.76735 5.61884 5.91336 5.67248C6.06498 5.72075 6.19414 5.79047 6.30084 5.88165C6.55917 6.10155 6.68833 6.41263 6.68833 6.81488C6.68833 7.21714 6.5732 7.65962 6.34296 8.14233C6.11833 8.61967 5.80947 9.0997 5.41637 9.5824C5.02888 10.0651 4.60209 10.5156 4.13598 10.934C3.67549 11.347 3.1785 11.6849 2.64501 11.9477C2.11151 12.2105 1.61452 12.3419 1.15403 12.3419C0.940634 12.3419 0.693542 12.2105 0.412756 11.9477C0.137585 11.6849 0 11.3389 0 10.9098C0 10.4808 0.193742 9.81571 0.581227 8.91466C0.968712 8.01361 1.43763 7.09914 1.98797 6.17127C2.54392 5.23804 3.1083 4.32894 3.68111 3.44398C4.25953 2.55902 4.7509 1.83496 5.15523 1.2718C5.55957 0.708641 5.80666 0.384154 5.89651 0.29834C5.98636 0.212525 6.14922 0.140119 6.38508 0.0811216C6.62655 0.0221241 6.83434 -0.00469298 7.00842 0.000670426C7.18251 0.000670426 7.26955 0.0757582 7.26955 0.225934C7.26955 0.322475 7.21901 0.445834 7.11793 0.596009ZM4.84356 8.31932C5.07381 7.93315 5.18893 7.58185 5.18893 7.26541C5.18893 6.94897 5.08223 6.79075 4.86883 6.79075C4.66105 6.79075 4.33815 6.87924 3.90012 7.05624C3.46771 7.22787 3.22062 7.31368 3.15884 7.31368C3.09707 7.31368 3.01564 7.26541 2.91456 7.16887C1.81949 9.05143 1.27196 10.2528 1.27196 10.7731C1.27196 11.0144 1.35339 11.1351 1.51625 11.1351C1.90373 11.1351 2.46249 10.8267 3.19254 10.2099C3.92258 9.58777 4.47292 8.95757 4.84356 8.31932Z" fill="#141516"/>
<path d="M9.17328 14.7474C9.14521 14.7742 9.05816 14.9083 8.91215 15.1496C8.77176 15.3963 8.62014 15.6431 8.45728 15.8898C8.29442 16.1419 8.09226 16.3805 7.85078 16.6058C7.61492 16.8311 7.41556 16.9517 7.25271 16.9678C7.09547 16.9893 6.99438 17 6.94946 17C6.43281 17 6.17449 16.7506 6.17449 16.2518C6.17449 15.6672 6.49178 14.9834 7.12635 14.2003C7.36783 13.9053 7.67108 13.5862 8.0361 13.2429C8.40112 12.905 8.60048 12.712 8.63418 12.6637C8.66787 12.6208 9.08905 11.8699 9.89771 10.411C9.3586 10.9742 8.8588 11.4328 8.39831 11.7868C7.93783 12.1354 7.49418 12.3312 7.06739 12.3741H7.00842C6.78941 12.3741 6.5732 12.3043 6.35981 12.1649C6.14641 12.0308 6.03971 11.7921 6.03971 11.4489C6.03971 10.9393 6.18291 10.4459 6.46931 9.96857C6.5704 9.8023 6.74448 9.52072 6.99158 9.12383C7.24428 8.72694 7.47734 8.34346 7.69073 7.97338C7.8929 7.67839 8.10068 7.33513 8.31408 6.94361C8.52748 6.55208 8.69033 6.27318 8.80265 6.10691C8.91496 5.93528 9.02166 5.84947 9.12274 5.84947C9.22383 5.84947 9.35299 5.91115 9.51023 6.03451C9.67308 6.1525 9.75451 6.29463 9.75451 6.4609C9.75451 6.62716 9.38668 7.34854 8.65102 8.62503C7.91536 9.90153 7.54753 10.6283 7.54753 10.8053C7.54753 10.8482 7.57 10.8696 7.61492 10.8696C7.76655 10.8696 8.10068 10.6658 8.61733 10.2582C9.13959 9.84521 9.7152 9.31691 10.3442 8.67331C11.0461 7.95997 11.5965 7.30832 11.9952 6.71834C12.0457 6.64325 12.085 6.58694 12.1131 6.54939C12.1468 6.50649 12.1861 6.45285 12.231 6.38849C12.2816 6.31877 12.3209 6.26513 12.349 6.22759C12.3827 6.19005 12.4192 6.14714 12.4585 6.09887C12.5034 6.04523 12.5427 6.00501 12.5764 5.97819C12.6101 5.95137 12.6466 5.92456 12.6859 5.89774C12.7477 5.84411 12.8151 5.81729 12.8881 5.81729C12.9667 5.81729 13.0818 5.83338 13.2335 5.86556C13.3907 5.89774 13.4834 5.9326 13.5114 5.97015C13.5451 6.00769 13.5788 6.04255 13.6125 6.07473C13.6687 6.13373 13.6968 6.19005 13.6968 6.24368C13.6968 6.29195 13.6743 6.35899 13.6294 6.44481C13.5844 6.52526 13.3233 6.94897 12.846 7.71594C11.442 9.9793 10.4761 11.6312 9.94825 12.6717C10.8018 11.9852 12.0036 10.9688 13.5535 9.62263C13.6153 9.57436 13.6771 9.55022 13.7389 9.55022C13.913 9.55022 14 9.80499 14 10.3145C14 10.4647 13.9719 10.5639 13.9158 10.6122C12.2367 11.8458 10.6558 13.2242 9.17328 14.7474Z" fill="#141516"/>
</svg>
