<svg width="96" height="12" viewBox="0 0 96 12" fill="none" xmlns="http://www.w3.org/2000/svg">
<path d="M0 0.437439H2.45759L3.55313 8.50695H3.58399L4.67953 0.437439H7.13712V11.7137H5.50293V3.1807H5.47207L4.21943 11.718H2.78583L1.53319 3.1807H1.50233V11.718H0V0.437439Z" fill="#141516"/>
<path d="M11.7845 11.1362C11.3375 10.6453 11.114 9.94741 11.114 9.04262V3.11429C11.114 2.21334 11.3384 1.5155 11.7873 1.02075C12.2361 0.526 12.8833 0.278625 13.7287 0.278625C14.5703 0.278625 15.217 0.526 15.6686 1.02075C16.1203 1.5155 16.3448 2.21334 16.342 3.11429V9.04262C16.342 9.94549 16.1175 10.6433 15.6686 11.1362C15.2198 11.629 14.5731 11.8764 13.7287 11.8783C12.8814 11.8783 12.2333 11.6309 11.7845 11.1362ZM14.6208 9.15524V3.00167C14.6208 2.26147 14.3234 1.89089 13.7287 1.88993C13.1339 1.88897 12.8365 2.25955 12.8365 3.00167V9.15524C12.8365 9.89543 13.1339 10.266 13.7287 10.267C14.3234 10.2679 14.6208 9.89736 14.6208 9.15524Z" fill="#141516"/>
<path d="M20.3131 0.437439H22.9433C23.7989 0.437439 24.4404 0.673745 24.8678 1.14636C25.2952 1.61897 25.5093 2.31152 25.5103 3.22401V8.9271C25.5103 9.83959 25.2961 10.5321 24.8678 11.0048C24.4395 11.4774 23.798 11.7137 22.9433 11.7137H20.3131V0.437439ZM22.9124 10.111C23.0321 10.1191 23.152 10.1003 23.2639 10.0559C23.3758 10.0115 23.477 9.94264 23.5605 9.85403C23.712 9.68222 23.7877 9.40212 23.7877 9.01662V3.14749C23.7877 2.76247 23.712 2.48285 23.5605 2.30863C23.477 2.22003 23.3758 2.15115 23.2639 2.10678C23.152 2.0624 23.0321 2.04358 22.9124 2.05163H22.0357V10.111H22.9124Z" fill="#141516"/>
<path d="M29.4899 0.437439H34.1848V2.04874H31.2068V5.02879H33.569V6.64586H31.2068V10.111H34.1792V11.7223H29.4899V0.437439Z" fill="#141516"/>
<path d="M37.982 0.437439H40.5336C41.4201 0.437439 42.0668 0.649681 42.4736 1.07416C42.8804 1.49865 43.0837 2.14981 43.0837 3.03198V3.72357C43.0837 4.89403 42.7097 5.63519 41.9616 5.94706V5.97882C42.1572 6.03325 42.3384 6.13258 42.4914 6.26936C42.6445 6.40614 42.7655 6.57682 42.8453 6.76859C43.0183 7.16612 43.1048 7.69552 43.1048 8.35679V10.3377C43.1019 10.5989 43.1122 10.8601 43.1357 11.1203C43.1578 11.3234 43.2108 11.5217 43.2928 11.7079H41.5393C41.4806 11.541 41.4388 11.3682 41.4145 11.1925C41.3878 10.9045 41.3771 10.6153 41.3822 10.3262V8.26872C41.3822 7.75327 41.3023 7.39376 41.1395 7.19018C40.9768 6.9866 40.6991 6.88409 40.2979 6.88409H39.7031V11.7166H37.982V0.437439ZM40.3302 5.2699C40.4706 5.28104 40.6117 5.26244 40.7449 5.21526C40.8781 5.16808 41.0005 5.09332 41.1045 4.99558C41.2775 4.81366 41.3635 4.50805 41.3626 4.07875V3.21246C41.3626 2.80386 41.2924 2.50932 41.1522 2.32596C41.0693 2.2304 40.9659 2.15599 40.8503 2.10863C40.7346 2.06127 40.6099 2.04225 40.4859 2.05307H39.7045V5.27424L40.3302 5.2699Z" fill="#141516"/>
<path d="M47.1068 0.437439H49.2684L50.9419 7.1873H50.9742V0.437439H52.5074V11.7137H50.7371L48.6723 3.4839H48.64V11.7137H47.1068V0.437439Z" fill="#141516"/>
<path d="M56.9499 11.1448C56.5225 10.6568 56.3088 9.95604 56.3088 9.04259V8.39865H57.936V9.17109C57.936 9.90166 58.2334 10.2669 58.8281 10.2669C58.9511 10.2755 59.0744 10.2561 59.1893 10.2102C59.3042 10.1643 59.4079 10.093 59.493 10.0013C59.6445 9.82321 59.7203 9.53445 59.7203 9.13499C59.7293 8.69703 59.6211 8.26495 59.4075 7.88609C59.198 7.5261 58.8118 7.09295 58.2488 6.58665C57.539 5.94271 57.0434 5.35989 56.7619 4.83819C56.4759 4.2979 56.3309 3.69049 56.3411 3.07529C56.3411 2.18301 56.5604 1.49286 56.999 1.00485C57.4375 0.51684 58.0739 0.272355 58.9081 0.271393C59.732 0.271393 60.3552 0.515877 60.7779 1.00485C61.2006 1.49382 61.412 2.19456 61.412 3.10705V3.5734H59.789V2.99588C59.789 2.61086 59.7161 2.32883 59.5702 2.1498C59.4896 2.05874 59.3901 1.98756 59.2792 1.94156C59.1682 1.89556 59.0485 1.87594 58.9291 1.88414C58.3549 1.88414 58.0678 2.24413 58.0678 2.96411C58.0675 3.36891 58.1789 3.76549 58.3891 4.10762C58.6023 4.46087 58.9909 4.89017 59.5548 5.3955C60.2739 6.04137 60.7695 6.62708 61.0417 7.15263C61.3235 7.72614 61.4633 8.3625 61.4485 9.00505C61.4485 9.92717 61.2268 10.6356 60.7836 11.1303C60.3403 11.6251 59.696 11.8725 58.8506 11.8725C58.0108 11.8763 57.3772 11.6338 56.9499 11.1448Z" fill="#141516"/>
<path d="M66.5909 2.05163H64.7912V0.437439H70.1118V2.04874H68.3121V11.7137H66.5909V2.05163Z" fill="#141516"/>
<path d="M75.4016 6.91586L73.3199 0.437439H75.1435L76.3176 4.57831H76.3484L77.5295 0.437439H79.2044L77.1227 6.91297V11.7137H75.4016V6.91586Z" fill="#141516"/>
<path d="M82.8038 0.437439H84.5249V10.111H87.3585V11.7223H82.8038V0.437439Z" fill="#141516"/>
<path d="M91.0042 0.437439H95.6992V2.04874H92.7254V5.02879H95.089V6.64586H92.7254V10.111H95.6992V11.7223H91.0042V0.437439Z" fill="#141516"/>
</svg>
