<svg width="27" height="27" viewBox="0 0 27 27" fill="none" xmlns="http://www.w3.org/2000/svg">
<path fill-rule="evenodd" clip-rule="evenodd" d="M1.42112 14.6333L5.69266 12.1772L8.93049 11.8049L27 1.41528V12.2926L5.30652 24.766V24.0213L26.3524 11.9203V2.5323L8.80578 12.6213L5.56795 12.9936L2.06868 15.0056V25.883L3.04003 25.3245V26.0692L1.42112 27V14.6333Z" fill="#B5B7BA"/>
<path fill-rule="evenodd" clip-rule="evenodd" d="M4.33517 25.6968C4.87163 25.3884 5.30652 24.6382 5.30652 24.0213C5.30652 23.4044 4.87163 23.1543 4.33517 23.4628C3.79871 23.7712 3.36382 24.5214 3.36382 25.1383C3.36382 25.7552 3.79871 26.0053 4.33517 25.6968ZM4.33517 26.4415C5.22927 25.9274 5.95408 24.6771 5.95408 23.649C5.95408 22.6208 5.22927 22.204 4.33517 22.7181C3.44106 23.2322 2.71625 24.4825 2.71625 25.5106C2.71625 26.5388 3.44106 26.9556 4.33517 26.4415Z" fill="#B5B7BA"/>
<path d="M4.14683 11.5783L0.647567 13.5904L0.647567 24.4677L1.61892 23.9092L1.61892 24.6539L0 25.5847L0 13.218L4.27154 10.762L7.50937 10.3896L25.5789 0V2.23403L24.9313 2.60637V1.11702L7.38466 11.206L4.14683 11.5783Z" fill="#B5B7BA"/>
</svg>
