<svg width="21" height="33" viewBox="0 0 21 33" fill="none"
    xmlns="http://www.w3.org/2000/svg">
    <path fill-rule="evenodd" clip-rule="evenodd" d="M20.3528 2.33608L20.0614 2.16883L3.02678 11.9209V31.6536L20.3528 21.7348V2.33608ZM2.38867 32.3418V11.5556L20.326 1.28674L20.9908 1.66845V22.1001L2.74487 32.5457L2.38867 32.3418Z" fill="#B5B7BA"/>
    <path fill-rule="evenodd" clip-rule="evenodd" d="M19.7236 1.66829L18.0517 0.742917L1.10555 10.4443V10.6372L2.60892 11.4662L19.7236 1.66829ZM0.203125 10.8512V10.2303L18.0517 0.0122986L20.9998 1.66829L2.60892 12.1967L0.203125 10.8512Z" fill="#B5B7BA"/>
    <path fill-rule="evenodd" clip-rule="evenodd" d="M2.42902 12.1993L0.638111 11.0872V30.5259L2.42902 31.6379V12.1993ZM2.74431 32.5491L0 30.8912L4.6434e-07 9.99124L3.06714 11.8339V32.3596L2.74431 32.5491Z" fill="#B5B7BA"/>
</svg>
