<svg width="19" height="30" viewBox="0 0 19 30" fill="none" xmlns="http://www.w3.org/2000/svg">
<path fill-rule="evenodd" clip-rule="evenodd" d="M18.4147 2.66388L18.1511 2.51255L2.73848 11.336V29.1898L18.4147 20.2155V2.66388ZM2.16113 29.8125V11.0055L18.3905 1.71446L18.992 2.05982V20.546L2.48341 29.9969L2.16113 29.8125Z" fill="#B5B7BA"/>
<path fill-rule="evenodd" clip-rule="evenodd" d="M10.5762 25.3637V6.29061L11.1536 5.9601V25.0332L10.5762 25.3637Z" fill="#B5B7BA"/>
<path fill-rule="evenodd" clip-rule="evenodd" d="M17.8453 2.05968L16.3326 1.22242L1.00009 10V10.1746L2.36031 10.9246L17.8453 2.05968ZM0.183594 10.3682V9.8064L16.3326 0.561371L19 2.05968L2.36031 11.5856L0.183594 10.3682Z" fill="#B5B7BA"/>
<path fill-rule="evenodd" clip-rule="evenodd" d="M2.19773 11.5879L0.57735 10.5817V28.1695L2.19773 29.1756V11.5879ZM2.483 30L0 28.5L4.20126e-07 9.59012L2.77509 11.2573V29.8286L2.483 30Z" fill="#B5B7BA"/>
</svg>
