<svg width="32" height="32" viewBox="0 0 32 32" fill="none" xmlns="http://www.w3.org/2000/svg">
<path d="M16.6244 4.16433C18.0771 4.16433 19.49 4.46057 20.4867 4.97739C21.3027 5.39674 21.7899 5.93151 21.7899 6.40601C21.7899 6.88051 21.3027 7.41528 20.4867 7.83592C19.4812 8.34889 18.0721 8.64898 16.6244 8.64898C15.1767 8.64898 13.7589 8.35274 12.7622 7.83592C11.9411 7.41528 11.454 6.88179 11.454 6.40858C11.454 5.93536 11.9411 5.3993 12.7572 4.97995C13.7626 4.46698 15.1717 4.16689 16.6194 4.16689L16.6244 4.16433ZM16.6194 3.33331C13.3166 3.33331 10.6392 4.71064 10.6392 6.41114C10.6392 8.11164 13.3166 9.48897 16.6194 9.48897C19.9223 9.48897 22.5997 8.11164 22.5997 6.41114C22.5997 4.71064 19.9223 3.33331 16.6194 3.33331Z" fill="#B5B7BA"/>
<path d="M16.6171 21.068C13.1859 21.068 10.4985 19.6573 10.4985 17.8722H11.3084C11.3084 19.2636 14.1054 20.2344 16.6171 20.2344C19.1288 20.2344 21.9246 19.2636 21.9246 17.8722H22.7344C22.7344 19.6637 20.047 21.068 16.6171 21.068Z" fill="#B5B7BA"/>
<path d="M22.7356 17.9735H21.9258V6.4509L22.6048 6.44064L22.7356 17.9735Z" fill="#B5B7BA"/>
<path d="M11.3084 17.9735H10.4985L10.6443 6.44064L11.3084 6.4509V17.9735Z" fill="#B5B7BA"/>
<path d="M16.4999 23.8637C14.0081 23.8637 11.6484 23.3033 9.87178 22.285C8.02038 21.2245 7 19.7869 7 18.2377C7 16.4513 8.363 14.8149 10.7377 13.7492L11.0604 14.5187C8.99343 15.4407 7.80983 16.7962 7.80983 18.2377C7.80983 19.4714 8.68195 20.6499 10.2655 21.5566C11.9238 22.5069 14.1377 23.0301 16.4949 23.0301C18.8522 23.0301 21.0711 22.5069 22.7244 21.5566C24.3179 20.6499 25.19 19.4714 25.19 18.2377C25.19 16.8604 24.0849 15.5446 22.16 14.6187L22.5014 13.8633C24.724 14.9277 25.9998 16.5218 25.9998 18.2377C25.9998 19.7869 24.9794 21.2245 23.1281 22.285C21.3514 23.3033 18.9967 23.8637 16.4999 23.8637Z" fill="#B5B7BA"/>
<path d="M16.4999 28.6639C11.1725 28.6639 7 26.2863 7 23.2546H7.80983C7.80983 25.7348 11.7892 27.8252 16.4999 27.8252C21.2106 27.8252 25.19 25.7348 25.19 23.2546H25.9998C25.9998 26.2863 21.8261 28.6639 16.4999 28.6639Z" fill="#B5B7BA"/>
<path d="M26.0003 18.4531H25.1904V23.2546H26.0003V18.4531Z" fill="#B5B7BA"/>
<path d="M7.80983 18.4531H7V23.2546H7.80983V18.4531Z" fill="#B5B7BA"/>
</svg>
