<svg width="14" height="14" viewBox="0 0 14 14" fill="none" xmlns="http://www.w3.org/2000/svg">
<path fill-rule="evenodd" clip-rule="evenodd" d="M3.04766 1.66837C2.92926 1.66812 2.81513 1.68152 2.70667 1.70699C2.55799 1.3793 2.3616 1.08531 2.13823 0.861939C1.75912 0.482824 1.1612 0.333344 0.333496 0.333344V1.66668C0.839128 1.66668 1.1301 1.73942 1.19542 1.80475C1.44741 2.05673 1.66683 2.56872 1.66683 3.00001L1.67353 3.09429L2.32678 7.66702C1.23373 7.72373 0.386961 8.57256 0.334315 9.63364L0.333496 10.3333C0.398044 11.4293 1.242 12.2724 2.29566 12.3323L2.447 12.3325C2.72132 13.1097 3.46237 13.6667 4.3335 13.6667C5.20431 13.6667 5.94513 13.1101 6.21969 12.3333H7.78063C8.05519 13.1101 8.79602 13.6667 9.66683 13.6667C10.7714 13.6667 11.6668 12.7712 11.6668 11.6667C11.6668 10.5621 10.7714 9.66668 9.66683 9.66668C8.79602 9.66668 8.05519 10.2232 7.78063 11H6.21969C5.94513 10.2232 5.20431 9.66668 4.3335 9.66668C3.46268 9.66668 2.72186 10.2232 2.4473 11H2.3335C1.9935 10.9796 1.68852 10.6749 1.66563 10.2934L1.66683 9.66668C1.68481 9.32088 1.9877 9.01799 2.36653 8.99919L3.68262 8.99952L3.69216 9.00001H10.4114L10.5098 8.96879C11.0153 8.80839 11.4199 8.42776 11.6115 7.93503L11.6817 7.79602L11.9099 7.34393C12.146 6.87596 12.3821 6.40718 12.6121 5.94921C13.1756 4.82739 13.53 4.11445 13.6085 3.93938C14.0115 3.04031 13.1951 2.34832 12.3606 2.33358L3.04766 1.66837ZM10.1798 7.66668H3.74208C3.69927 7.65478 3.66665 7.61852 3.66027 7.57335L3.007 3.0005L12.2624 3.66329C12.1005 3.99356 11.8061 4.58345 11.4207 5.35074L11.411 5.36996C11.191 5.80792 10.9553 6.27604 10.7195 6.74339L10.4916 7.19491L10.4052 7.3659L10.3727 7.44149C10.3379 7.53851 10.2687 7.61825 10.1798 7.66668ZM9.66683 12.3333C10.035 12.3333 10.3335 12.0349 10.3335 11.6667C10.3335 11.2985 10.035 11 9.66683 11C9.29864 11 9.00016 11.2985 9.00016 11.6667C9.00016 12.0349 9.29864 12.3333 9.66683 12.3333ZM5.00016 11.6667C5.00016 12.0349 4.70169 12.3333 4.3335 12.3333C3.96531 12.3333 3.66683 12.0349 3.66683 11.6667C3.66683 11.2985 3.96531 11 4.3335 11C4.70169 11 5.00016 11.2985 5.00016 11.6667Z" fill="#141516"/>
</svg>
