<svg width="106" height="26" viewBox="0 0 106 26" fill="none" xmlns="http://www.w3.org/2000/svg">
<path d="M6.19742 20.7815C4.24787 20.7815 2.72758 20.2105 1.63655 19.0684C0.545516 17.9263 0 16.2923 0 14.1662V13.0329C0 10.7839 0.500801 9.04883 1.5024 7.82767C2.50401 6.60652 3.93934 5.99594 5.8084 5.99594C7.63275 5.99594 9.00548 6.57138 9.9266 7.72225C10.8477 8.86434 11.3172 10.5599 11.3351 12.8089V14.6406H3.78284C3.8365 15.6949 4.07348 16.468 4.4938 16.96C4.91411 17.4431 5.56247 17.6847 6.43888 17.6847C7.70877 17.6847 8.7685 17.2587 9.61807 16.4065L11.1071 18.6599C10.642 19.2924 9.96684 19.8064 9.0815 20.2017C8.19615 20.5883 7.23479 20.7815 6.19742 20.7815ZM3.80967 12.0314H7.60592V11.6888C7.58804 10.8366 7.44495 10.1909 7.17666 9.75165C6.90838 9.31238 6.44335 9.09275 5.78157 9.09275C5.1198 9.09275 4.63689 9.32556 4.33283 9.79118C4.03771 10.2568 3.86333 11.0035 3.80967 12.0314Z" fill="#F1BC32"/>
<path d="M19.9069 16.6964C19.9069 16.3801 19.7504 16.0902 19.4374 15.8267C19.1333 15.5543 18.4492 15.1897 17.385 14.7329C15.82 14.1091 14.7423 13.4634 14.1521 12.7957C13.5708 12.1281 13.2802 11.2979 13.2802 10.3051C13.2802 9.05761 13.7363 8.02973 14.6484 7.22149C15.5696 6.40446 16.7858 5.99594 18.2971 5.99594C19.889 5.99594 21.1633 6.40007 22.1202 7.20831C23.0771 8.01656 23.5556 9.10154 23.5556 10.4633H19.7593C19.7593 9.3036 19.2674 8.72377 18.2837 8.72377C17.8813 8.72377 17.5504 8.84676 17.2911 9.09275C17.0317 9.33874 16.9021 9.68137 16.9021 10.1206C16.9021 10.4369 17.0451 10.718 17.3313 10.964C17.6175 11.2012 18.2927 11.5438 19.3569 11.9919C20.904 12.5541 21.995 13.1823 22.63 13.8763C23.2739 14.5616 23.5958 15.4533 23.5958 16.5514C23.5958 17.8253 23.1084 18.8488 22.1336 19.6219C21.1589 20.395 19.88 20.7815 18.2971 20.7815C17.2329 20.7815 16.2939 20.5795 15.4801 20.1754C14.6663 19.7625 14.0269 19.1914 13.5619 18.4622C13.1058 17.7331 12.8778 16.9468 12.8778 16.1034H16.4862C16.5041 16.7535 16.6561 17.2411 16.9423 17.5661C17.2374 17.8912 17.7159 18.0537 18.3776 18.0537C19.3971 18.0537 19.9069 17.6013 19.9069 16.6964Z" fill="#F1BC32"/>
<path d="M30.1554 17.4212H35.8967V20.518H25.6482V18.1855L31.2554 9.36949H25.7823V6.2595H35.8162V8.51292L30.1554 17.4212Z" fill="#F1BC32"/>
<path d="M45.3002 20.518C45.1929 20.2984 45.0855 19.9294 44.9782 19.411C44.2986 20.3247 43.3775 20.7815 42.2149 20.7815C40.9986 20.7815 39.9881 20.3862 39.1832 19.5955C38.3873 18.8049 37.9894 17.7814 37.9894 16.5251C37.9894 15.0316 38.4723 13.8763 39.4381 13.0593C40.4129 12.2423 41.8125 11.825 43.6368 11.8074H44.7904V10.6609C44.7904 10.0196 44.6786 9.56716 44.4551 9.3036C44.2315 9.04004 43.9051 8.90826 43.4758 8.90826C42.5279 8.90826 42.0539 9.45295 42.0539 10.5423H38.2577C38.2577 9.22453 38.7585 8.13955 39.7601 7.28738C40.7706 6.42642 42.045 5.99594 43.5831 5.99594C45.175 5.99594 46.4046 6.40446 47.2721 7.22149C48.1485 8.02973 48.5867 9.18939 48.5867 10.7005V17.408C48.6046 18.6379 48.7834 19.5999 49.1233 20.294V20.518H45.3002ZM43.06 17.8561C43.4803 17.8561 43.838 17.7726 44.1331 17.6057C44.4282 17.4388 44.6473 17.2411 44.7904 17.0127V14.0476H43.8783C43.2344 14.0476 42.7246 14.2497 42.349 14.6538C41.9824 15.0579 41.799 15.5982 41.799 16.2747C41.799 17.3289 42.2194 17.8561 43.06 17.8561Z" fill="#F1BC32"/>
<path d="M52.2086 20.518V9.0664H50.4513V6.2595H52.2086V4.98125C52.2175 3.40868 52.6378 2.18753 53.4695 1.31779C54.3101 0.439263 55.4682 0 56.9438 0C57.391 0 57.9633 0.0878527 58.6608 0.263558L58.634 3.24176C58.3747 3.1627 58.0661 3.12316 57.7084 3.12316C56.5816 3.12316 56.0182 3.78206 56.0182 5.09985V6.2595H58.2852V9.0664H56.0182V20.518H52.2086Z" fill="#F1BC32"/>
<path d="M65.1668 15.0228L64.1473 16.1429V20.518H60.351V0.276736H64.1473V11.2144L64.6168 10.5291L67.246 6.2595H71.7666L67.5545 12.1368L72.1691 20.518H67.8228L65.1668 15.0228Z" fill="#F1BC32"/>
<path d="M77.4811 20.518H73.6715V6.2595H77.4811V20.518ZM73.4971 2.56969C73.4971 1.98986 73.6849 1.51546 74.0605 1.14648C74.4361 0.777496 74.9369 0.593006 75.5629 0.593006C76.1889 0.593006 76.6897 0.777496 77.0653 1.14648C77.4409 1.51546 77.6287 1.98986 77.6287 2.56969C77.6287 3.14073 77.4409 3.61514 77.0653 3.9929C76.6986 4.37067 76.1978 4.55955 75.5629 4.55955C74.9279 4.55955 74.4227 4.37067 74.0471 3.9929C73.6804 3.61514 73.4971 3.14073 73.4971 2.56969Z" fill="#F1BC32"/>
<path d="M80.7274 18.6204C80.7274 18.023 80.9286 17.531 81.3311 17.1444C81.7424 16.7579 82.2745 16.5646 82.9274 16.5646C83.5623 16.5646 84.0899 16.7579 84.5102 17.1444C84.9306 17.5222 85.1407 18.0142 85.1407 18.6204C85.1407 19.2353 84.9261 19.7317 84.4968 20.1095C84.0765 20.4785 83.5534 20.6629 82.9274 20.6629C82.2924 20.6629 81.7648 20.4741 81.3445 20.0963C80.9331 19.7185 80.7274 19.2266 80.7274 18.6204Z" fill="#F1BC32"/>
<path d="M99.7221 13.8368C99.7221 16.077 99.3286 17.7946 98.5416 18.9894C97.7636 20.1842 96.601 20.7815 95.0539 20.7815C93.8735 20.7815 92.9255 20.3115 92.2101 19.3715V26H88.4138V6.2595H91.9284L92.0625 7.56412C92.7869 6.51867 93.7751 5.99594 95.0271 5.99594C96.5742 5.99594 97.7368 6.54942 98.5148 7.65636C99.3018 8.7633 99.7042 10.4589 99.7221 12.743V13.8368ZM95.9393 12.9012C95.9393 11.5219 95.7828 10.5467 95.4697 9.97567C95.1657 9.40463 94.647 9.11911 93.9137 9.11911C93.1357 9.11911 92.5678 9.43977 92.2101 10.0811V16.7623C92.5499 17.3773 93.1267 17.6847 93.9405 17.6847C94.6917 17.6847 95.2104 17.3729 95.4966 16.7491C95.7917 16.1254 95.9393 15.1546 95.9393 13.8368V12.9012Z" fill="#F1BC32"/>
<path d="M106 20.518H102.19V0.276736H106V20.518Z" fill="#F1BC32"/>
</svg>
