<svg width="16" height="16" viewBox="0 0 16 16" fill="none" xmlns="http://www.w3.org/2000/svg">
<path fill-rule="evenodd" clip-rule="evenodd" d="M7.99999 15.3333C3.9499 15.3333 0.666656 12.0501 0.666656 7.99999C0.666656 3.9499 3.9499 0.666656 7.99999 0.666656C12.0501 0.666656 15.3333 3.9499 15.3333 7.99999C15.3333 12.0501 12.0501 15.3333 7.99999 15.3333ZM12.933 11.4164C13.6057 10.4469 14 9.26947 14 7.99999C14 4.68628 11.3137 1.99999 7.99999 1.99999C4.68628 1.99999 1.99999 4.68628 1.99999 7.99999C1.99999 9.26947 2.39424 10.4469 3.06699 11.4164C3.81729 10.4254 5.58039 9.99999 7.99999 9.99999C10.4196 9.99999 12.1827 10.4254 12.933 11.4164ZM11.9764 12.4932C11.7813 11.7916 10.3796 11.3333 7.99999 11.3333C5.6204 11.3333 4.21866 11.7916 4.02353 12.4932C5.08219 13.4308 6.47461 14 7.99999 14C9.52536 14 10.9178 13.4308 11.9764 12.4932ZM7.99999 3.99999C6.38606 3.99999 5.33332 5.1705 5.33332 6.66666C5.33332 8.95157 6.50723 9.99999 7.99999 9.99999C9.47871 9.99999 10.6667 8.9864 10.6667 6.79999C10.6667 5.28104 9.60945 3.99999 7.99999 3.99999ZM6.66666 6.66666C6.66666 8.17949 7.21213 8.66666 7.99999 8.66666C8.78513 8.66666 9.33332 8.19892 9.33332 6.79999C9.33332 5.96694 8.81043 5.33332 7.99999 5.33332C7.15582 5.33332 6.66666 5.87721 6.66666 6.66666Z" fill="#141516"/>
</svg>
