<svg width="14" height="16" viewBox="0 0 14 16" fill="none" xmlns="http://www.w3.org/2000/svg">
<path fill-rule="evenodd" clip-rule="evenodd" d="M5.00016 0.666672H9.00016C9.73654 0.666672 10.3335 1.26363 10.3335 2.00001V2.66667H12.3335C13.0699 2.66667 13.6668 3.26363 13.6668 4.00001V5.33334C13.6668 6.06972 13.0699 6.66667 12.3335 6.66667H12.2801L11.6669 14C11.6669 14.7364 11.0699 15.3333 10.3335 15.3333H3.66687C2.93049 15.3333 2.33353 14.7364 2.33584 14.0554L1.72011 6.66667H1.66683C0.93045 6.66667 0.333496 6.06972 0.333496 5.33334V4.00001C0.333496 3.26363 0.93045 2.66667 1.66683 2.66667H3.66683V2.00001C3.66683 1.26363 4.26378 0.666672 5.00016 0.666672ZM1.66683 4.00001L3.66683 4H10.3335L12.3335 4.00001V5.33334H1.66683V4.00001ZM3.05784 6.66667H10.9423L10.3358 13.9446L10.3335 14H3.66685L3.05784 6.66667ZM9.00016 2.00001V2.66667H5.00016V2.00001H9.00016Z" fill="#141516"/>
</svg>
